# Blender 4.1.1
# www.blender.org
mtllib packman.mtl
o Sphere
v 0.701602 0.513923 0.507696
v 0.920868 0.284521 0.280676
v 0.926781 -0.256675 -0.260488
v 0.389798 -0.639358 -0.649062
v 0.920868 -0.256675 0.280676
v 0.853728 -0.506675 -0.011271
v 0.656615 -0.677419 -0.301502
v 0.359538 -0.742912 -0.545833
v 0.701602 -0.486077 0.507696
v 0.651152 -0.718615 0.198468
v 0.501570 -0.839630 -0.140975
v 0.275629 -0.830700 -0.458956
v 0.375523 -0.639358 0.657423
v 0.349895 -0.860228 0.336798
v 0.270998 -0.948017 -0.035102
v 0.150844 -0.889358 -0.401657
v -0.007726 -0.693184 0.707065
v -0.004181 -0.909956 0.382661
v -0.000000 -0.986077 0.000000
v 0.004181 -0.909956 -0.382660
v -0.389798 -0.639358 0.649061
v -0.357170 -0.860228 0.329073
v -0.270166 -0.948017 -0.041014
v -0.142032 -0.889358 -0.404857
v -0.712528 -0.486077 0.492245
v -0.655333 -0.718615 0.184193
v -0.498370 -0.839630 -0.151901
v -0.265535 -0.830700 -0.464869
v -0.926781 -0.256675 0.260488
v -0.853278 -0.506675 -0.029922
v -0.649870 -0.677418 -0.315777
v -0.347526 -0.742912 -0.553558
v -0.007726 0.721030 0.707065
v -0.389798 0.667205 0.649061
v -0.712527 0.513923 0.492245
v -0.926781 0.284521 0.260488
v -0.999940 0.013923 -0.010926
v -0.920868 -0.256675 -0.280676
v -0.701602 -0.486077 -0.507696
v -0.375523 -0.639358 -0.657423
v -0.359538 0.770758 0.545833
v -0.656615 0.705265 0.301502
v -0.853728 0.534521 0.011271
v -0.920868 0.284521 -0.280676
v -0.847815 -0.006675 -0.529893
v -0.645689 -0.294735 -0.698438
v -0.345264 -0.535805 -0.760652
v -0.275629 0.858546 0.458956
v -0.501570 0.867477 0.140975
v -0.651152 0.746461 -0.198468
v -0.701602 0.513923 -0.507696
v -0.645239 0.205265 -0.739632
v -0.490645 -0.132523 -0.858965
v -0.261354 -0.448017 -0.847529
v 0.007725 -0.693184 -0.707065
v -0.150844 0.917205 0.401657
v -0.270998 0.975863 0.035102
v -0.349894 0.888075 -0.336798
v -0.375523 0.667205 -0.657424
v -0.343982 0.346879 -0.877962
v -0.260072 -0.024137 -0.964839
v -0.136569 -0.389358 -0.904828
v -0.004181 0.937803 0.382661
v 0.000000 1.013923 0.000000
v 0.004181 0.937803 -0.382660
v 0.007726 0.721030 -0.707065
v 0.010094 0.396606 -0.923824
v 0.010925 0.013923 -0.999940
v 0.010094 -0.368760 -0.923824
v 0.142032 0.917205 0.404857
v 0.270166 0.975863 0.041014
v 0.357170 0.888074 -0.329072
v 0.389798 0.667204 -0.649061
v 0.363083 0.346878 -0.870236
v 0.281092 -0.024137 -0.958926
v 0.156307 -0.389358 -0.901628
v 0.265535 0.858546 0.464869
v 0.498370 0.867476 0.151901
v 0.655333 0.746461 -0.184193
v 0.712527 0.513923 -0.492244
v 0.661246 0.205265 -0.725356
v 0.509296 -0.132524 -0.848040
v 0.279810 -0.448017 -0.841616
v 0.347526 0.770758 0.553558
v 0.649870 0.705265 0.315777
v 0.853277 0.534521 0.029923
v 0.926781 0.284521 -0.260488
v 0.859190 -0.006675 -0.511241
v 0.660796 -0.294735 -0.684163
v 0.361801 -0.535805 -0.752927
v 0.375523 0.667204 0.657424
v 0.999940 0.013923 0.010926
v 0.712527 -0.486077 -0.492245
vn 0.9626 -0.2708 0.0105
vn 0.2022 -0.7204 -0.6634
vn 0.8233 -0.5030 -0.2632
vn 0.5577 -0.6620 -0.5006
vn 0.1720 -0.7711 -0.6131
vn 0.6960 -0.7162 -0.0514
vn 0.4721 -0.8056 -0.3581
vn 0.8133 -0.5210 0.2591
vn 0.3156 -0.9154 -0.2499
vn 0.5404 -0.7125 0.4476
vn 0.1167 -0.8099 -0.5749
vn 0.4635 -0.8793 0.1092
vn 0.1120 -0.9749 -0.1927
vn 0.1855 -0.8161 0.5473
vn 0.0448 -0.8308 -0.5547
vn 0.1611 -0.9676 0.1942
vn -0.0327 -0.8308 -0.5555
vn -0.1653 -0.9676 0.1907
vn -0.1077 -0.9749 -0.1951
vn -0.1974 -0.8161 0.5432
vn -0.4658 -0.8793 0.0991
vn -0.3100 -0.9154 -0.2568
vn -0.5501 -0.7125 0.4357
vn -0.1041 -0.8099 -0.5773
vn -0.4641 -0.8056 -0.3683
vn -0.8188 -0.5210 0.2413
vn -0.1585 -0.7711 -0.6167
vn -0.6948 -0.7162 -0.0666
vn -0.9626 -0.2708 -0.0105
vn -0.1877 -0.7204 -0.6677
vn -0.8173 -0.5030 -0.2811
vn -0.5466 -0.6621 -0.5127
vn -0.1871 -0.6656 -0.7225
vn -0.8148 -0.2722 -0.5119
vn -0.9626 0.2708 -0.0105
vn -0.5577 0.6620 0.5006
vn -0.5449 -0.5067 -0.6680
vn -0.9596 -0.0000 -0.2813
vn -0.8233 0.5030 0.2632
vn -0.2022 0.7204 0.6634
vn -0.8133 0.5210 -0.2591
vn -0.4721 0.8056 0.3581
vn -0.4593 -0.3632 -0.8106
vn -0.8103 0.2502 -0.5299
vn -0.6960 0.7162 0.0514
vn -0.1720 0.7711 0.6131
vn -0.1568 -0.6149 -0.7728
vn -0.6876 -0.0590 -0.7237
vn -0.3028 -0.2534 -0.9188
vn -0.5375 0.4417 -0.7184
vn -0.4635 0.8793 -0.1092
vn -0.1167 0.8099 0.5749
vn -0.1016 -0.5761 -0.8110
vn -0.4550 0.1042 -0.8844
vn -0.5404 0.7125 -0.4476
vn -0.3156 0.9154 0.2499
vn -0.1611 0.9676 -0.1942
vn -0.0448 0.8308 0.5547
vn -0.0297 -0.5552 -0.8312
vn -0.1526 0.1925 -0.9694
vn -0.1855 0.8161 -0.5473
vn -0.1120 0.9749 0.1927
vn -0.0992 -0.1939 -0.9760
vn -0.1826 0.5453 -0.8181
vn 0.0479 -0.5552 -0.8304
vn 0.1737 0.1925 -0.9658
vn 0.1974 0.8161 -0.5432
vn 0.1077 0.9749 0.1951
vn 0.1205 -0.1939 -0.9736
vn 0.2004 0.5453 -0.8139
vn 0.1653 0.9676 -0.1907
vn 0.0327 0.8308 0.5555
vn 0.3100 0.9154 0.2568
vn 0.3228 -0.2534 -0.9119
vn 0.5530 0.4417 -0.7065
vn 0.4658 0.8793 -0.0991
vn 0.1041 0.8099 0.5773
vn 0.1193 -0.5761 -0.8086
vn 0.4743 0.1042 -0.8742
vn 0.5501 0.7125 -0.4357
vn 0.4769 -0.3632 -0.8004
vn 0.8217 0.2502 -0.5120
vn 0.6948 0.7162 0.0666
vn 0.1585 0.7711 0.6167
vn 0.1737 -0.6149 -0.7692
vn 0.7032 -0.0590 -0.7085
vn 0.8188 0.5210 -0.2412
vn 0.4641 0.8056 0.3683
vn 0.1877 0.7204 0.6677
vn 0.2028 -0.6656 -0.7182
vn 0.8258 -0.2722 -0.4940
vn 0.9626 0.2708 0.0105
vn 0.5466 0.6620 0.5127
vn 0.5594 -0.5067 -0.6560
vn 0.9655 -0.0000 -0.2603
vn 0.8173 0.5030 0.2811
vn -0.0077 0.7071 0.7071
vn -0.0077 -0.7071 0.7071
vn 0.1855 -0.8161 0.5474
vn -0.5466 -0.6620 -0.5127
vn -0.5577 0.6621 0.5006
vt 0.653915 0.404794
vt 0.592160 0.334040
vt 0.657751 0.328129
vt 0.386126 0.161911
vt 0.463657 0.177430
vt 0.452855 0.206105
vt 0.542548 0.190586
vt 0.584713 0.268605
vt 0.522590 0.243571
vt 0.432897 0.228052
vt 0.485712 0.284124
vt 0.582920 0.411193
vt 0.545423 0.342887
vt 0.406821 0.239930
vt 0.745351 0.910159
vt 0.820274 0.836667
vt 0.825678 0.898970
vt 0.892544 0.819423
vt 0.896680 0.867108
vt 0.437529 0.306071
vt 0.378596 0.239930
vt 0.739502 0.842722
vt 0.818376 0.763174
vt 0.891092 0.763174
vt 0.352519 0.228052
vt 0.892544 0.706926
vt 0.337193 0.284124
vt 0.737448 0.763174
vt 0.820274 0.689682
vt 0.896680 0.659240
vt 0.265604 0.336378
vt 0.302406 0.262030
vt 0.317297 0.275670
vt 0.739502 0.683627
vt 0.825678 0.627378
vt 0.332561 0.206105
vt 0.219704 0.268279
vt 0.292457 0.238815
vt 0.164626 0.340557
vt 0.067201 0.285043
vt 0.140605 0.284512
vt 0.321760 0.177429
vt 0.238089 0.311174
vt 0.132170 0.213885
vt 0.321760 0.146392
vt 0.213249 0.214223
vt 0.288963 0.209560
vt 0.332561 0.117716
vt 0.219704 0.157237
vt 0.058071 0.208597
vt 0.010666 0.124708
vt 0.067201 0.128006
vt 0.810904 0.151321
vt 0.754831 0.079230
vt 0.810904 0.071289
vt 0.292457 0.178720
vt 0.140605 0.139429
vt 0.730101 0.012608
vt 0.803364 0.002231
vt 0.803364 0.230144
vt 0.780557 0.155619
vt 0.093201 0.055541
vt 0.704274 0.106278
vt 0.238089 0.105996
vt 0.302406 0.150988
vt 0.164626 0.072479
vt 0.664045 0.047948
vt 0.753196 0.170257
vt 0.352520 0.095769
vt 0.265604 0.068301
vt 0.317297 0.130588
vt 0.200576 0.023228
vt 0.615253 0.102871
vt 0.732986 0.193007
vt 0.378596 0.083891
vt 0.277396 0.579599
vt 0.233202 0.488330
vt 0.290552 0.499915
vt 0.666930 0.148315
vt 0.224411 0.568895
vt 0.146392 0.638077
vt 0.155183 0.563102
vt 0.723004 0.220405
vt 0.406821 0.083892
vt 0.224411 0.413080
vt 0.146392 0.350168
vt 0.199377 0.354602
vt 0.158269 0.482060
vt 0.648485 0.198940
vt 0.385377 0.017750
vt 0.155183 0.407287
vt 0.432897 0.095769
vt 0.089041 0.350168
vt 0.080250 0.563102
vt 0.077164 0.482060
vt 0.651747 0.250447
vt 0.437529 0.017750
vt 0.080250 0.407287
vt 0.089041 0.638077
vt 0.724769 0.248281
vt 0.676219 0.294994
vt 0.485712 0.039697
vt 0.452855 0.117716
vt 0.011022 0.413080
vt 0.036056 0.642510
vt 0.011022 0.568895
vt 0.738013 0.272389
vt 0.536531 0.002231
vt 0.522590 0.080250
vt 0.002231 0.488330
vt 0.463657 0.146392
vt 0.812430 0.404794
vt 0.732209 0.326053
vt 0.804200 0.328129
vt 0.806126 0.485612
vt 0.731149 0.556688
vt 0.734135 0.483536
vt 0.760720 0.289061
vt 0.584714 0.055216
vt 0.542548 0.133235
vt 0.734508 0.402548
vt 0.755822 0.611727
vt 0.786248 0.558277
vt 0.789432 0.295758
vt 0.610790 0.124445
vt 0.659677 0.485612
vt 0.726002 0.610867
vt 0.674161 0.558277
vt 0.732985 0.616190
vt 0.656199 0.991492
vt 0.547606 0.899900
vt 0.382128 0.680905
vt 0.321760 0.533921
vt 0.382128 0.386936
vt 0.610790 0.199377
vt 0.536530 0.321590
vt 0.532332 0.420768
vt 0.385376 0.306071
vt 0.745351 0.616190
vt 0.093201 0.345706
vt 0.002231 0.199164
vt 0.034688 0.057759
vt 0.132113 0.002231
vt 0.199377 0.642510
vt 0.695161 0.611727
vt 0.591102 0.687309
vt 0.656199 0.638959
vt 0.732985 0.997769
vt 0.591102 0.957126
vt 0.532332 0.828529
vt 0.547606 0.753877
vt 0.527869 0.741788
vt 0.448995 0.725965
vt 0.337449 0.613468
vt 0.337449 0.454373
vt 0.448995 0.341876
vt 0.527869 0.326053
s 0
usemtl Material.001
f 92/1/1 6/2/1 3/3/1
f 55/4/2 4/5/2 8/6/2
f 93/7/3 6/8/3 7/9/3
f 93/7/4 8/6/4 4/5/4
f 55/4/5 8/6/5 12/10/5
f 6/8/6 11/11/6 7/9/6
f 7/9/7 12/10/7 8/6/7
f 5/12/8 10/13/8 6/2/8
f 11/11/9 16/14/9 12/10/9
f 9/15/10 14/16/10 10/17/10
f 55/4/11 12/10/11 16/14/11
f 10/17/12 15/18/12 11/19/12
f 15/20/13 20/21/13 16/14/13
f 13/22/14 18/23/14 14/16/14
f 55/4/15 16/14/15 20/21/15
f 14/16/16 19/24/16 15/18/16
f 55/4/17 20/21/17 24/25/17
f 18/23/18 23/26/18 19/24/18
f 20/21/19 23/27/19 24/25/19
f 17/28/20 22/29/20 18/23/20
f 22/29/21 27/30/21 23/26/21
f 23/31/22 28/32/22 24/33/22
f 21/34/23 26/35/23 22/29/23
f 55/4/24 24/25/24 28/36/24
f 28/32/25 31/37/25 32/38/25
f 26/39/26 29/40/26 30/41/26
f 55/4/27 28/36/27 32/42/27
f 26/39/28 31/37/28 27/43/28
f 29/40/29 38/44/29 30/41/29
f 55/4/30 32/42/30 40/45/30
f 30/41/31 39/46/31 31/37/31
f 32/38/32 39/46/32 40/47/32
f 55/4/33 40/45/33 47/48/33
f 38/44/34 46/49/34 39/46/34
f 37/50/35 43/51/35 44/52/35
f 34/53/36 42/54/36 35/55/36
f 39/46/37 47/56/37 40/47/37
f 38/44/38 44/52/38 45/57/38
f 35/55/39 43/58/39 36/59/39
f 34/53/40 33/60/40 41/61/40
f 43/51/41 51/62/41 44/52/41
f 41/61/42 49/63/42 42/54/42
f 47/56/43 53/64/43 54/65/43
f 44/52/44 52/66/44 45/57/44
f 42/54/45 50/67/45 43/58/45
f 41/61/46 33/60/46 48/68/46
f 55/4/47 47/48/47 54/69/47
f 45/57/48 53/64/48 46/49/48
f 54/65/49 61/70/49 62/71/49
f 51/62/50 60/72/50 52/66/50
f 49/63/51 58/73/51 50/67/51
f 48/68/52 33/60/52 56/74/52
f 55/4/53 54/69/53 62/75/53
f 52/66/54 61/70/54 53/64/54
f 50/76/55 59/77/55 51/78/55
f 48/68/56 57/79/56 49/63/56
f 58/80/57 64/81/57 65/82/57
f 56/74/58 33/60/58 63/83/58
f 55/4/59 62/75/59 69/84/59
f 60/85/60 68/86/60 61/87/60
f 59/77/61 65/82/61 66/88/61
f 56/74/62 64/89/62 57/79/62
f 61/90/63 69/84/63 62/75/63
f 59/77/64 67/91/64 60/85/64
f 55/4/65 69/84/65 76/92/65
f 67/91/66 75/93/66 68/86/66
f 66/88/67 72/94/67 73/95/67
f 63/83/68 71/96/68 64/89/68
f 68/97/69 76/92/69 69/84/69
f 66/88/70 74/98/70 67/91/70
f 65/82/71 71/99/71 72/94/71
f 63/83/72 33/60/72 70/100/72
f 70/100/73 78/101/73 71/96/73
f 75/102/74 83/103/74 76/92/74
f 73/95/75 81/104/75 74/98/75
f 72/94/76 78/105/76 79/106/76
f 70/100/77 33/60/77 77/107/77
f 55/4/78 76/92/78 83/103/78
f 74/108/79 82/109/79 75/102/79
f 73/95/80 79/106/80 80/110/80
f 82/109/81 90/111/81 83/103/81
f 80/112/82 88/113/82 81/114/82
f 79/115/83 85/116/83 86/117/83
f 77/107/84 33/60/84 84/118/84
f 55/4/85 83/103/85 90/111/85
f 81/119/86 89/120/86 82/109/86
f 80/112/87 86/117/87 87/121/87
f 77/122/88 85/116/88 78/123/88
f 84/118/89 33/60/89 91/124/89
f 55/4/90 90/111/90 4/5/90
f 88/125/91 93/7/91 89/120/91
f 87/121/92 2/126/92 92/1/92
f 84/127/93 1/128/93 85/116/93
f 89/120/94 4/5/94 90/111/94
f 87/121/95 3/3/95 88/113/95
f 86/117/96 1/128/96 2/126/96
f 92/129/97 29/130/97 21/131/97
f 1/132/98 33/133/98 35/134/98
f 92/1/1 5/12/1 6/2/1
f 93/7/3 3/135/3 6/8/3
f 93/7/4 7/9/4 8/6/4
f 6/8/6 10/136/6 11/11/6
f 7/9/7 11/11/7 12/10/7
f 5/12/8 9/137/8 10/13/8
f 11/11/9 15/20/9 16/14/9
f 9/15/10 13/22/10 14/16/10
f 10/17/12 14/16/12 15/18/12
f 15/20/13 19/138/13 20/21/13
f 13/22/99 17/28/99 18/23/99
f 14/16/16 18/23/16 19/24/16
f 18/23/18 22/29/18 23/26/18
f 20/21/19 19/138/19 23/27/19
f 17/28/20 21/34/20 22/29/20
f 22/29/21 26/35/21 27/30/21
f 23/31/22 27/43/22 28/32/22
f 21/34/23 25/139/23 26/35/23
f 28/32/25 27/43/25 31/37/25
f 26/39/26 25/140/26 29/40/26
f 26/39/28 30/41/28 31/37/28
f 29/40/29 37/50/29 38/44/29
f 30/41/31 38/44/31 39/46/31
f 32/38/100 31/37/100 39/46/100
f 38/44/34 45/57/34 46/49/34
f 37/50/35 36/141/35 43/51/35
f 34/53/101 41/61/101 42/54/101
f 39/46/37 46/49/37 47/56/37
f 38/44/38 37/50/38 44/52/38
f 35/55/39 42/54/39 43/58/39
f 43/51/41 50/142/41 51/62/41
f 41/61/42 48/68/42 49/63/42
f 47/56/43 46/49/43 53/64/43
f 44/52/44 51/62/44 52/66/44
f 42/54/45 49/63/45 50/67/45
f 45/57/48 52/66/48 53/64/48
f 54/65/49 53/64/49 61/70/49
f 51/62/50 59/143/50 60/72/50
f 49/63/51 57/79/51 58/73/51
f 52/66/54 60/72/54 61/70/54
f 50/76/55 58/80/55 59/77/55
f 48/68/56 56/74/56 57/79/56
f 58/80/57 57/144/57 64/81/57
f 60/85/60 67/91/60 68/86/60
f 59/77/61 58/80/61 65/82/61
f 56/74/62 63/83/62 64/89/62
f 61/90/63 68/97/63 69/84/63
f 59/77/64 66/88/64 67/91/64
f 67/91/66 74/98/66 75/93/66
f 66/88/67 65/82/67 72/94/67
f 63/83/68 70/100/68 71/96/68
f 68/97/69 75/102/69 76/92/69
f 66/88/70 73/95/70 74/98/70
f 65/82/71 64/81/71 71/99/71
f 70/100/73 77/107/73 78/101/73
f 75/102/74 82/109/74 83/103/74
f 73/95/75 80/110/75 81/104/75
f 72/94/76 71/99/76 78/105/76
f 74/108/79 81/119/79 82/109/79
f 73/95/80 72/94/80 79/106/80
f 82/109/81 89/120/81 90/111/81
f 80/112/82 87/121/82 88/113/82
f 79/115/83 78/123/83 85/116/83
f 81/119/86 88/125/86 89/120/86
f 80/112/87 79/115/87 86/117/87
f 77/122/88 84/127/88 85/116/88
f 88/125/91 3/135/91 93/7/91
f 87/121/92 86/117/92 2/126/92
f 84/127/93 91/145/93 1/128/93
f 89/120/94 93/7/94 4/5/94
f 87/121/95 92/1/95 3/3/95
f 86/117/96 85/116/96 1/128/96
f 9/146/97 5/147/97 92/129/97
f 92/129/97 37/148/97 29/130/97
f 29/130/97 25/149/97 21/131/97
f 21/131/97 17/150/97 92/129/97
f 17/150/97 13/151/97 92/129/97
f 13/151/97 9/146/97 92/129/97
f 92/152/98 2/153/98 1/132/98
f 1/132/98 91/154/98 33/133/98
f 33/133/98 34/155/98 35/134/98
f 35/134/98 36/156/98 37/157/98
f 37/157/98 92/152/98 35/134/98
f 92/152/98 1/132/98 35/134/98
